<svg width="78%" viewBox="0 0 176 56" fill="none" xmlns="http://www.w3.org/2000/svg"><defs><radialGradient id="___SVG_ID__172__0___" cx="0" cy="0" r="1" gradientUnits="userSpaceOnUse" gradientTransform="translate(88 44.25) rotate(90) scale(33.25 52.25)"><stop stop-color="#03010A"></stop><stop offset="1" stop-color="#03010A" stop-opacity="0"></stop></radialGradient><linearGradient id="___SVG_ID__172__1___" x1="88" y1="24.5" x2="88" y2="36.5" gradientUnits="userSpaceOnUse"><stop stop-color="#321D62" stop-opacity="0"></stop><stop offset="1" stop-color="#321D62"></stop></linearGradient><linearGradient id="___SVG_ID__172__2___" x1="88" y1="24.5" x2="88" y2="36.5" gradientUnits="userSpaceOnUse"><stop stop-color="#321D62" stop-opacity="0"></stop><stop offset="1" stop-color="#321D62"></stop></linearGradient><linearGradient id="___SVG_ID__172__3___" x1="17.4712" y1="9.5" x2="17.4712" y2="39" gradientUnits="userSpaceOnUse"><stop stop-color="#321D62" stop-opacity="0"></stop><stop offset="1" stop-color="#321D62"></stop></linearGradient><linearGradient id="___SVG_ID__172__4___" x1="88" y1="24.5" x2="88" y2="36.5" gradientUnits="userSpaceOnUse"><stop stop-color="#321D62" stop-opacity="0"></stop><stop offset="1" stop-color="#321D62"></stop></linearGradient><linearGradient id="___SVG_ID__172__5___" x1="158.5" y1="9.5" x2="158.5" y2="39" gradientUnits="userSpaceOnUse"><stop stop-color="#321D62" stop-opacity="0"></stop><stop offset="1" stop-color="#321D62"></stop></linearGradient><radialGradient id="___SVG_ID__172__6___" cx="0" cy="0" r="1" gradientUnits="userSpaceOnUse" gradientTransform="translate(72.5 41) rotate(90) scale(8 12)"><stop stop-color="#C7D7F7"></stop><stop offset="1" stop-color="#C7D7F7" stop-opacity="0"></stop></radialGradient><radialGradient id="___SVG_ID__172__7___" cx="0" cy="0" r="1" gradientUnits="userSpaceOnUse" gradientTransform="translate(104.5 41) rotate(90) scale(8 12)"><stop stop-color="#F1D55E"></stop><stop offset="1" stop-color="#F1D55E" stop-opacity="0"></stop></radialGradient></defs><path d="M35 55H141L175 21V1H1V21L35 55Z" fill="url(#___SVG_ID__172__0___)"></path><path d="M35 55H141" stroke="url(#___SVG_ID__172__1___)"></path><path d="M35 55L1 21" stroke="url(#___SVG_ID__172__2___)"></path><path d="M19 30L44 55" stroke="#321D62" stroke-opacity="0.6"></path><path d="M1.00018 1L18.9712 18.971V39" stroke="url(#___SVG_ID__172__3___)"></path><path d="M141 55L175 21" stroke="url(#___SVG_ID__172__4___)"></path><path d="M157 30L132 55" stroke="#321D62" stroke-opacity="0.6"></path><path d="M174.971 1L157 18.971V39" stroke="url(#___SVG_ID__172__5___)"></path></svg>